<?xml version="1.0" encoding="UTF-8"?><!DOCTYPE svg PUBLIC "-//W3C//DTD SVG 1.1//EN" "http://www.w3.org/Graphics/SVG/1.1/DTD/svg11.dtd"><svg xmlns="http://www.w3.org/2000/svg"><symbol id="circle" viewBox="0 0 493 493"><circle cx="246.5" cy="246.5" r="246.5" fill-rule="evenodd" clip-rule="evenodd" fill="#eff2f6" opacity=".502"/><circle cx="246" cy="246" r="193.4" fill-rule="evenodd" clip-rule="evenodd" fill="#e8ecf1" opacity=".502"/><circle cx="246" cy="246" r="131.6" fill-rule="evenodd" clip-rule="evenodd" fill="#e8ecf1"/></symbol><symbol id="heli" viewBox="0 0 400 400"><path d="M70.1 323.9c-1.5 0-3 .6-4.1 1.7-1.1 1.1-1.7 2.6-1.7 4.1 0 1.5.6 3 1.7 4.1 1.1 1.1 2.6 1.7 4.1 1.7 1.5 0 3-.6 4.1-1.7 1.1-1.1 1.7-2.6 1.7-4.1 0-1.5-.6-3-1.7-4.1-1-1.1-2.5-1.7-4.1-1.7zm0 0" clip-path="url(#SVGID_2_)"/><path d="M389.9 263.3l-45.4 45.4c-3.7-2.3-8.1-3.6-12.7-3.6-4.9 0-9.4 1.4-13.2 3.9-.3-.8-.7-1.5-1.4-2.2l-62.3-62.3c-.3-.3-.6-.5-.9-.8l4.1-70.4c1.1-.2 2.2-.7 3-1.6l81-81c.3-.3.6-.6.8-1 .5-.3 1.1-.6 1.6-.9l45.4 45.4c1.1 1.1 2.6 1.7 4.1 1.7 1.5 0 3-.6 4.1-1.7 2.3-2.3 2.3-6 0-8.3l-45.4-45.4c2.3-3.7 3.6-8.1 3.6-12.7 0-13.5-11-24.5-24.5-24.5-4.6 0-9 1.3-12.7 3.6L273.6 1.7c-2.3-2.3-6-2.3-8.3 0-2.3 2.3-2.3 6 0 8.3l45.4 45.4c-2.3 3.7-3.6 8.1-3.6 12.7 0 1 .1 2 .2 3.1l-58.5 40.9c-1.6-2.3-3.4-4.4-5.3-6.5-11.2-11.9-26.4-18.4-42.7-18.4-16.3 0-31.5 6.5-42.7 18.4-1.9 2.1-3.7 4.2-5.3 6.5L94.5 71.2c.1-1 .2-2 .2-3.1 0-4.6-1.3-9-3.6-12.7L136.5 10c2.3-2.3 2.3-6 0-8.3-2.3-2.3-6-2.3-8.3 0L82.8 47.2c-3.7-2.3-8.1-3.6-12.7-3.6-13.5 0-24.5 11-24.5 24.5 0 4.6 1.3 9 3.6 12.7L3.7 126.3c-2.3 2.3-2.3 6 0 8.3 1.1 1.1 2.6 1.7 4.1 1.7 1.5 0 3-.6 4.1-1.7l45.4-45.4c.5.3 1 .6 1.6.9.2.3.5.7.8 1l81 81c.9.9 1.9 1.4 3 1.6l4.1 70.4c-.3.2-.6.5-.9.8l-62.3 62.3c-.6.6-1.1 1.4-1.4 2.2-3.8-2.4-8.3-3.9-13.2-3.9-4.6 0-9 1.3-12.7 3.6L12 263.3c-2.3-2.3-6-2.3-8.3 0-2.3 2.3-2.3 6 0 8.3L49.2 317c-2.3 3.7-3.6 8.1-3.6 12.7 0 13.5 11 24.5 24.5 24.5 4.6 0 9-1.3 12.7-3.6l45.4 45.4c1.1 1.1 2.6 1.7 4.1 1.7 1.5 0 3-.6 4.1-1.7 2.3-2.3 2.3-6 0-8.3l-44.3-44.3 71.2-38.3c5 3.4 10.9 5.4 17.4 5.4H221c6.4 0 12.4-2 17.4-5.4l71.2 38.3-44.3 44.3c-2.3 2.3-2.3 6 0 8.3 1.1 1.1 2.6 1.7 4.1 1.7 1.5 0 3-.6 4.1-1.7l45.4-45.4c3.7 2.3 8.1 3.6 12.7 3.6 13.5 0 24.5-11 24.5-24.5 0-4.6-1.3-9-3.6-12.7l45.4-45.4c2.3-2.3 2.3-6 0-8.3s-5.7-2.3-8 0zm-81 51.9c.6.6 1.4 1.1 2.2 1.4-2.3 3.6-3.7 7.9-3.9 12.5l-60.4-32.5c2.8-4.3 4.5-9.4 4.9-14.9l1.3-22.4 55.9 55.9zm22.8-259.9c7.1 0 12.8 5.8 12.8 12.8 0 7.1-5.8 12.8-12.8 12.8-7.1 0-12.8-5.8-12.8-12.8 0-7.1 5.7-12.8 12.8-12.8zm-19.9 27.1c3.2 4.4 7.7 7.7 13.1 9.3L259 157.5l.5-8.1c.6-9.5-1.1-18.7-4.8-27l57.1-40zm-145.1 31.2c1.1-1.2 2.3-2.3 3.5-3.3v13.9c0 3.2 2.6 5.8 5.8 5.8 3.2 0 5.8-2.6 5.8-5.8v-18.7c0-.8-.2-1.6-.5-2.4 6-2.8 12.7-4.2 19.6-4.2 6.9 0 13.5 1.5 19.6 4.2-.3.7-.5 1.5-.5 2.4v18.7c0 3.2 2.6 5.8 5.8 5.8 3.2 0 5.8-2.6 5.8-5.8v-13.9c1.2 1 2.3 2.1 3.5 3.3 9 9.5 13.5 22 12.7 35L240.1 281c-.4 6.1-3.6 11.5-8.4 14.7V149.1c0-3.2-2.6-5.8-5.8-5.8-3.2 0-5.8 2.6-5.8 5.8V299h-38.2V149.1c0-3.2-2.6-5.8-5.8-5.8-3.2 0-5.8 2.6-5.8 5.8v146.6c-4.8-3.2-8-8.5-8.4-14.7L154 148.7c-.8-13.1 3.7-25.5 12.7-35.1zM70.1 55.3C77.2 55.3 83 61 83 68.1 83 75.2 77.2 81 70.1 81c-7.1 0-12.8-5.8-12.8-12.8 0-7.2 5.7-12.9 12.8-12.9zM77 91.7c5.3-1.6 9.9-4.9 13.1-9.3l57.1 39.9c-3.7 8.4-5.4 17.6-4.8 27l.5 8.1L77 91.7zm71.8 167.6l1.3 22.4c.3 5.5 2.1 10.5 4.9 14.9l-60.3 32.5c-.1-4.6-1.5-8.9-3.9-12.5.8-.3 1.5-.7 2.2-1.4l55.8-55.9zm-78.7 83.3c-7.1 0-12.8-5.8-12.8-12.8 0-7.1 5.8-12.8 12.8-12.8 7.1 0 12.8 5.8 12.8 12.8.1 7-5.7 12.8-12.8 12.8zm261.6 0c-7.1 0-12.8-5.8-12.8-12.8 0-7.1 5.8-12.8 12.8-12.8 7.1 0 12.8 5.8 12.8 12.8.1 7-5.7 12.8-12.8 12.8zm0 0" clip-path="url(#SVGID_2_)"/><path d="M331.7 323.9c-1.5 0-3 .6-4.1 1.7-1.1 1.1-1.7 2.6-1.7 4.1 0 1.5.6 3 1.7 4.1 1.1 1.1 2.6 1.7 4.1 1.7 1.5 0 3-.6 4.1-1.7 1.1-1.1 1.7-2.6 1.7-4.1 0-1.5-.6-3-1.7-4.1-1-1.1-2.5-1.7-4.1-1.7zm0 0M331.7 74c1.5 0 3-.6 4.1-1.7 1.1-1.1 1.7-2.6 1.7-4.1 0-1.5-.6-3-1.7-4.1-1.1-1.1-2.6-1.7-4.1-1.7-1.5 0-3 .6-4.1 1.7-1.1 1.1-1.7 2.6-1.7 4.1 0 1.5.6 3 1.7 4.1 1.1 1 2.6 1.7 4.1 1.7zm0 0M70.1 74c1.5 0 3-.6 4.1-1.7 1.1-1.1 1.7-2.6 1.7-4.1 0-1.5-.6-3-1.7-4.1-1.1-1.1-2.6-1.7-4.1-1.7-1.5 0-3 .6-4.1 1.7-1.1 1.1-1.7 2.6-1.7 4.1 0 1.5.6 3 1.7 4.1 1.1 1 2.6 1.7 4.1 1.7zm0 0M200.9 285.7c3.2 0 5.8-2.6 5.8-5.8v-18.7c0-3.2-2.6-5.8-5.8-5.8-3.2 0-5.8 2.6-5.8 5.8v18.7c0 3.2 2.6 5.8 5.8 5.8zm0 0"/></symbol><symbol id="kiwi" viewBox="0 65.326 612 502.174"><ellipse fill="#C6C6C6" cx="283.5" cy="487.5" rx="259" ry="80"/><path d="M210.333 65.331c-105.966.774-222.682 85.306-209.277 211.118 4.303 40.393 18.533 63.704 52.171 79.03 36.307 16.544 57.022 54.556 50.406 112.954-9.935 4.88-17.405 11.031-19.132 20.015 7.531-.17 14.943-.312 22.59 4.341 20.333 12.375 31.296 27.363 42.979 51.72 1.714 3.572 8.192 2.849 8.312-3.078.17-8.467-1.856-17.454-5.226-26.933-2.955-8.313 3.059-7.985 6.917-6.106 6.399 3.115 16.334 9.43 30.39 13.098 5.392 1.407 5.995-3.877 5.224-6.991-1.864-7.522-11.009-10.862-24.519-19.229-4.82-2.984-.927-9.736 5.168-8.351l20.234 2.415c3.359.763 4.555-6.114.882-7.875-14.198-6.804-28.897-10.098-53.864-7.799-11.617-29.265-29.811-61.617-15.674-81.681 12.639-17.938 31.216-20.74 39.147 43.489-5.002 3.107-11.215 5.031-11.332 13.024 7.201-2.845 11.207-1.399 14.791 0 17.912 6.998 35.462 21.826 52.982 37.309 3.739 3.303 8.413-1.718 6.991-6.034-2.138-6.494-8.053-10.659-14.791-20.016-3.239-4.495 5.03-7.045 10.886-6.876 13.849.396 22.886 8.268 35.177 11.218 4.483 1.076 9.741-1.964 6.917-6.917-3.472-6.085-13.015-9.124-19.18-13.413-4.357-3.029-3.025-7.132 2.697-6.602 3.905.361 8.478 2.271 13.908 1.767 9.946-.925 7.717-7.169-.883-9.566-19.036-5.304-39.891-6.311-61.665-5.225-43.837-8.358-31.554-84.887 0-90.363 29.571-5.132 62.966-13.339 99.928-32.156 32.668-5.429 64.835-12.446 92.939-33.85 48.106-14.469 111.903 16.113 204.241 149.695 3.926 5.681 15.819 9.94 9.524-6.351-15.893-41.125-68.176-93.328-92.13-132.085-24.581-39.774-14.34-61.243-39.957-91.247-21.326-24.978-47.502-25.803-77.339-17.365-23.461 6.634-39.234-7.117-52.98-31.273-29.365-51.617-81.947-74.215-137.452-73.811zM445.731 203.01c6.12 0 11.112 4.919 11.112 11.038 0 6.119-4.994 11.111-11.112 11.111s-11.038-4.994-11.038-11.111a11.01 11.01 0 0 1 11.038-11.038z"/></symbol><symbol id="phone" viewBox="0 0 15 15"><path d="M15 11.8c0 .2 0 .4-.2.6l-2.1 2.1c-.1.1-.2.2-.4.3-.2.1-.3.1-.4.1H11.6c-.2 0-.5 0-1-.1-.4-.1-1-.2-1.6-.5-.6-.3-1.4-.7-2.2-1.2-.8-.5-1.7-1.3-2.6-2.2-.7-.7-1.3-1.4-1.8-2.1-.5-.6-.9-1.2-1.2-1.8C.9 6.4.7 5.9.6 5.5.4 5 .3 4.6.3 4.3.2 4 .2 3.7.2 3.5v-.3c0-.1.1-.3.1-.4.1-.2.2-.3.3-.4L2.7.3c.2-.1.3-.2.5-.2.1 0 .3 0 .4.1l.3.3 1.7 3.2v.5c0 .2-.1.4-.3.5l-.7.8s0 .1-.1.1v.1c0 .2.1.5.3.8.1.2.3.5.5.9.3.3.7.8 1.2 1.2.5.5.9.9 1.3 1.1.4.3.7.5.9.6.2.1.4.2.6.2H9.6s.1 0 .1-.1l.9-.9c.2-.2.4-.3.7-.3.2 0 .3 0 .4.1l3 1.8c.1.3.3.5.3.7zm0 0"/></symbol></svg>