<?xml version="1.0" encoding="utf-8"?>
<!-- Generator: Adobe Illustrator 21.1.0, SVG Export Plug-In . SVG Version: 6.00 Build 0)  -->
<svg version="1.1" id="Слой_1" xmlns="http://www.w3.org/2000/svg" xmlns:xlink="http://www.w3.org/1999/xlink" x="0px" y="0px"
	 width="400px" height="400px" viewBox="0 0 400 400" style="enable-background:new 0 0 400 400;" xml:space="preserve">
<g>
	<g>
		<defs>
			<rect id="SVGID_1_" x="2" width="398" height="398"/>
		</defs>
		<path style="clip-path:url(#SVGID_2_);" d="M70.1,323.9c-1.5,0-3,0.6-4.1,1.7c-1.1,1.1-1.7,2.6-1.7,4.1c0,1.5,0.6,3,1.7,4.1
			c1.1,1.1,2.6,1.7,4.1,1.7c1.5,0,3-0.6,4.1-1.7c1.1-1.1,1.7-2.6,1.7-4.1c0-1.5-0.6-3-1.7-4.1C73.2,324.5,71.7,323.9,70.1,323.9
			L70.1,323.9z M70.1,323.9"/>
		<path style="clip-path:url(#SVGID_2_);" d="M389.9,263.3l-45.4,45.4c-3.7-2.3-8.1-3.6-12.7-3.6c-4.9,0-9.4,1.4-13.2,3.9
			c-0.3-0.8-0.7-1.5-1.4-2.2l-62.3-62.3c-0.3-0.3-0.6-0.5-0.9-0.8l4.1-70.4c1.1-0.2,2.2-0.7,3-1.6l81-81c0.3-0.3,0.6-0.6,0.8-1
			c0.5-0.3,1.1-0.6,1.6-0.9l45.4,45.4c1.1,1.1,2.6,1.7,4.1,1.7c1.5,0,3-0.6,4.1-1.7c2.3-2.3,2.3-6,0-8.3l-45.4-45.4
			c2.3-3.7,3.6-8.1,3.6-12.7c0-13.5-11-24.5-24.5-24.5c-4.6,0-9,1.3-12.7,3.6L273.6,1.7c-2.3-2.3-6-2.3-8.3,0c-2.3,2.3-2.3,6,0,8.3
			l45.4,45.4c-2.3,3.7-3.6,8.1-3.6,12.7c0,1,0.1,2,0.2,3.1l-58.5,40.9c-1.6-2.3-3.4-4.4-5.3-6.5c-11.2-11.9-26.4-18.4-42.7-18.4
			c-16.3,0-31.5,6.5-42.7,18.4c-1.9,2.1-3.7,4.2-5.3,6.5L94.5,71.2c0.1-1,0.2-2,0.2-3.1c0-4.6-1.3-9-3.6-12.7L136.5,10
			c2.3-2.3,2.3-6,0-8.3c-2.3-2.3-6-2.3-8.3,0L82.8,47.2c-3.7-2.3-8.1-3.6-12.7-3.6c-13.5,0-24.5,11-24.5,24.5c0,4.6,1.3,9,3.6,12.7
			L3.7,126.3c-2.3,2.3-2.3,6,0,8.3c1.1,1.1,2.6,1.7,4.1,1.7c1.5,0,3-0.6,4.1-1.7l45.4-45.4c0.5,0.3,1,0.6,1.6,0.9
			c0.2,0.3,0.5,0.7,0.8,1l81,81c0.9,0.9,1.9,1.4,3,1.6l4.1,70.4c-0.3,0.2-0.6,0.5-0.9,0.8l-62.3,62.3c-0.6,0.6-1.1,1.4-1.4,2.2
			c-3.8-2.4-8.3-3.9-13.2-3.9c-4.6,0-9,1.3-12.7,3.6L12,263.3c-2.3-2.3-6-2.3-8.3,0c-2.3,2.3-2.3,6,0,8.3L49.2,317
			c-2.3,3.7-3.6,8.1-3.6,12.7c0,13.5,11,24.5,24.5,24.5c4.6,0,9-1.3,12.7-3.6l45.4,45.4c1.1,1.1,2.6,1.7,4.1,1.7
			c1.5,0,3-0.6,4.1-1.7c2.3-2.3,2.3-6,0-8.3l-44.3-44.3l71.2-38.3c5,3.4,10.9,5.4,17.4,5.4H221c6.4,0,12.4-2,17.4-5.4l71.2,38.3
			l-44.3,44.3c-2.3,2.3-2.3,6,0,8.3c1.1,1.1,2.6,1.7,4.1,1.7c1.5,0,3-0.6,4.1-1.7l45.4-45.4c3.7,2.3,8.1,3.6,12.7,3.6
			c13.5,0,24.5-11,24.5-24.5c0-4.6-1.3-9-3.6-12.7l45.4-45.4c2.3-2.3,2.3-6,0-8.3S392.2,261,389.9,263.3L389.9,263.3z M308.9,315.2
			c0.6,0.6,1.4,1.1,2.2,1.4c-2.3,3.6-3.7,7.9-3.9,12.5l-60.4-32.5c2.8-4.3,4.5-9.4,4.9-14.9l1.3-22.4L308.9,315.2z M331.7,55.3
			c7.1,0,12.8,5.8,12.8,12.8c0,7.1-5.8,12.8-12.8,12.8c-7.1,0-12.8-5.8-12.8-12.8C318.9,61,324.6,55.3,331.7,55.3L331.7,55.3z
			 M311.8,82.4c3.2,4.4,7.7,7.7,13.1,9.3L259,157.5l0.5-8.1c0.6-9.5-1.1-18.7-4.8-27L311.8,82.4z M166.7,113.6
			c1.1-1.2,2.3-2.3,3.5-3.3v13.9c0,3.2,2.6,5.8,5.8,5.8c3.2,0,5.8-2.6,5.8-5.8v-18.7c0-0.8-0.2-1.6-0.5-2.4c6-2.8,12.7-4.2,19.6-4.2
			c6.9,0,13.5,1.5,19.6,4.2c-0.3,0.7-0.5,1.5-0.5,2.4v18.7c0,3.2,2.6,5.8,5.8,5.8c3.2,0,5.8-2.6,5.8-5.8v-13.9
			c1.2,1,2.3,2.1,3.5,3.3c9,9.5,13.5,22,12.7,35L240.1,281c-0.4,6.1-3.6,11.5-8.4,14.7V149.1c0-3.2-2.6-5.8-5.8-5.8
			c-3.2,0-5.8,2.6-5.8,5.8v149.5c0,0.1,0,0.3,0,0.4h-38.2c0-0.1,0-0.3,0-0.4V149.1c0-3.2-2.6-5.8-5.8-5.8c-3.2,0-5.8,2.6-5.8,5.8
			v146.6c-4.8-3.2-8-8.5-8.4-14.7L154,148.7C153.2,135.6,157.7,123.2,166.7,113.6L166.7,113.6z M70.1,55.3C77.2,55.3,83,61,83,68.1
			C83,75.2,77.2,81,70.1,81c-7.1,0-12.8-5.8-12.8-12.8C57.3,61,63,55.3,70.1,55.3L70.1,55.3z M77,91.7c5.3-1.6,9.9-4.9,13.1-9.3
			l57.1,39.9c-3.7,8.4-5.4,17.6-4.8,27l0.5,8.1L77,91.7z M148.8,259.3l1.3,22.4c0.3,5.5,2.1,10.5,4.9,14.9l-60.3,32.5
			c-0.1-4.6-1.5-8.9-3.9-12.5c0.8-0.3,1.5-0.7,2.2-1.4L148.8,259.3z M70.1,342.6c-7.1,0-12.8-5.8-12.8-12.8
			c0-7.1,5.8-12.8,12.8-12.8c7.1,0,12.8,5.8,12.8,12.8C83,336.8,77.2,342.6,70.1,342.6L70.1,342.6z M331.7,342.6
			c-7.1,0-12.8-5.8-12.8-12.8c0-7.1,5.8-12.8,12.8-12.8c7.1,0,12.8,5.8,12.8,12.8C344.6,336.8,338.8,342.6,331.7,342.6L331.7,342.6z
			 M331.7,342.6"/>
	</g>
	<path d="M331.7,323.9c-1.5,0-3,0.6-4.1,1.7c-1.1,1.1-1.7,2.6-1.7,4.1c0,1.5,0.6,3,1.7,4.1c1.1,1.1,2.6,1.7,4.1,1.7
		c1.5,0,3-0.6,4.1-1.7c1.1-1.1,1.7-2.6,1.7-4.1c0-1.5-0.6-3-1.7-4.1C334.8,324.5,333.3,323.9,331.7,323.9L331.7,323.9z M331.7,323.9
		"/>
	<path d="M331.7,74c1.5,0,3-0.6,4.1-1.7c1.1-1.1,1.7-2.6,1.7-4.1c0-1.5-0.6-3-1.7-4.1c-1.1-1.1-2.6-1.7-4.1-1.7
		c-1.5,0-3,0.6-4.1,1.7c-1.1,1.1-1.7,2.6-1.7,4.1c0,1.5,0.6,3,1.7,4.1C328.7,73.3,330.2,74,331.7,74L331.7,74z M331.7,74"/>
	<path d="M70.1,74c1.5,0,3-0.6,4.1-1.7c1.1-1.1,1.7-2.6,1.7-4.1c0-1.5-0.6-3-1.7-4.1c-1.1-1.1-2.6-1.7-4.1-1.7c-1.5,0-3,0.6-4.1,1.7
		c-1.1,1.1-1.7,2.6-1.7,4.1c0,1.5,0.6,3,1.7,4.1C67.1,73.3,68.6,74,70.1,74L70.1,74z M70.1,74"/>
	<path d="M200.9,285.7c3.2,0,5.8-2.6,5.8-5.8v-18.7c0-3.2-2.6-5.8-5.8-5.8c-3.2,0-5.8,2.6-5.8,5.8v18.7
		C195.1,283.1,197.7,285.7,200.9,285.7L200.9,285.7z M200.9,285.7"/>
</g>
</svg>
