<?xml version="1.0" encoding="utf-8"?>
<!-- Generator: Adobe Illustrator 21.1.0, SVG Export Plug-In . SVG Version: 6.00 Build 0)  -->
<svg version="1.1" id="Слой_1" xmlns="http://www.w3.org/2000/svg" xmlns:xlink="http://www.w3.org/1999/xlink" x="0px" y="0px"
	 width="15px" height="15px" viewBox="0 0 15 15" style="enable-background:new 0 0 15 15;" xml:space="preserve">
<g>
	<g>
		<path d="M15,11.8c0,0.2,0,0.4-0.2,0.6l-2.1,2.1c-0.1,0.1-0.2,0.2-0.4,0.3c-0.2,0.1-0.3,0.1-0.4,0.1c0,0,0,0-0.1,0
			c-0.1,0-0.1,0-0.2,0c-0.2,0-0.5,0-1-0.1c-0.4-0.1-1-0.2-1.6-0.5c-0.6-0.3-1.4-0.7-2.2-1.2c-0.8-0.5-1.7-1.3-2.6-2.2
			c-0.7-0.7-1.3-1.4-1.8-2.1C1.9,8.2,1.5,7.6,1.2,7C0.9,6.4,0.7,5.9,0.6,5.5C0.4,5,0.3,4.6,0.3,4.3C0.2,4,0.2,3.7,0.2,3.5
			c0-0.2,0-0.3,0-0.3c0-0.1,0.1-0.3,0.1-0.4c0.1-0.2,0.2-0.3,0.3-0.4l2.1-2.1C2.9,0.2,3,0.1,3.2,0.1c0.1,0,0.3,0,0.4,0.1
			c0.1,0.1,0.2,0.2,0.3,0.3l1.7,3.2C5.6,3.9,5.6,4,5.6,4.2c0,0.2-0.1,0.4-0.3,0.5L4.6,5.5c0,0,0,0.1-0.1,0.1c0,0,0,0.1,0,0.1
			c0,0.2,0.1,0.5,0.3,0.8C4.9,6.7,5.1,7,5.3,7.4C5.6,7.7,6,8.2,6.5,8.6c0.5,0.5,0.9,0.9,1.3,1.1c0.4,0.3,0.7,0.5,0.9,0.6
			c0.2,0.1,0.4,0.2,0.6,0.2l0.2,0c0,0,0.1,0,0.1,0c0,0,0.1,0,0.1-0.1l0.9-0.9c0.2-0.2,0.4-0.3,0.7-0.3c0.2,0,0.3,0,0.4,0.1h0l3,1.8
			C14.8,11.4,15,11.6,15,11.8L15,11.8z M15,11.8"/>
	</g>
</g>
</svg>
